<?xml version="1.0" standalone="no"?>
<!DOCTYPE svg PUBLIC "-//W3C//DTD SVG 20010904//EN"
 "http://www.w3.org/TR/2001/REC-SVG-20010904/DTD/svg10.dtd">
<svg version="1.0" xmlns="http://www.w3.org/2000/svg"
 width="500.000000pt" height="500.000000pt" viewBox="0 0 500.000000 500.000000"
 preserveAspectRatio="xMidYMid meet">
<metadata>
Created by potrace 1.14, written by Peter Selinger 2001-2017
</metadata>
<g transform="translate(0.000000,500.000000) scale(0.100000,-0.100000)"
fill="#000000" stroke="none">
<path d="M2360 4629 c-53 -4 -128 -12 -167 -19 -40 -6 -83 -13 -95 -15 -66 -8
-254 -64 -323 -94 -22 -10 -60 -27 -85 -37 -97 -41 -302 -151 -308 -166 -2 -4
-8 -8 -12 -8 -9 0 -183 -123 -206 -144 -6 -6 -33 -29 -60 -51 -26 -22 -60 -53
-74 -69 -14 -15 -62 -67 -107 -115 -140 -148 -161 -174 -219 -259 -117 -175
-237 -422 -259 -535 -2 -9 -6 -21 -9 -26 -3 -4 -8 -26 -11 -47 -2 -21 -7 -50
-10 -64 -3 -14 -7 -43 -10 -65 -3 -22 -7 -51 -10 -65 -26 -136 -21 -532 10
-705 3 -16 10 -57 16 -90 28 -159 86 -331 171 -505 34 -69 64 -127 67 -130 4
-3 15 -22 26 -43 72 -138 330 -424 490 -542 22 -17 42 -32 45 -35 3 -3 21 -17
40 -30 19 -13 37 -27 40 -30 16 -19 239 -150 324 -190 106 -49 308 -112 431
-134 11 -2 38 -7 60 -11 45 -9 48 -9 160 -20 133 -13 366 -8 463 9 9 2 38 6
63 10 25 4 59 9 75 12 45 7 184 43 234 60 25 9 53 17 64 20 10 2 25 9 34 16 8
7 18 12 21 10 10 -5 210 84 221 98 3 4 20 12 37 18 18 6 38 16 45 22 16 14
118 80 124 80 5 0 87 63 149 115 80 66 207 197 315 324 30 35 67 78 82 94 15
17 25 34 22 39 -3 4 -1 8 5 8 12 0 21 16 112 200 75 153 100 210 129 300 24
72 61 198 65 222 2 11 6 27 9 36 5 16 7 26 20 102 3 19 8 49 11 65 3 17 9 122
12 235 4 160 2 231 -11 320 -55 395 -220 768 -469 1064 -104 123 -279 288
-397 374 -245 179 -627 327 -965 377 -90 13 -288 20 -385 14z"/>
</g>
</svg>
